<?xml version="1.0" encoding="UTF-8"?>
<svg xmlns="http://www.w3.org/2000/svg" version="1.1" viewBox="0 0 1536 1024">
  <!-- Generator: Adobe Illustrator 30.2.1, SVG Export Plug-In . SVG Version: 2.1.1 Build 1)  -->
  <defs>
    <style>
      .st0 {
        fill: #fff;
      }

      .st1 {
        display: none;
      }
    </style>
  </defs>
  <g id="Layer_3" class="st1">
    <rect width="1536" height="1024"/>
  </g>
  <g id="Layer_2">
    <g>
      <path class="st1" d="M13.9,1069.5V66.3h1504.7v1003.1H13.9ZM810.3,439.2c0-.6-2.4-2.4-2.6-2l-1,1.5c-6.1,9.2-12.6,19.6-24.7,19.3-4.1,0-8.6-3.5-8.7-7.9-.6-25.4,0-50.6,8-75.4-6-1.4-40.1-2.6-40.9,1.3s11.5,37.9,1.2,92.8c-.9,4.6-3.7,8.3-5.4,13.1,4.6.7,9.4.9,14.4.7,19.2-.9,37.3-.6,56.5,1.4,1.3-6.5,1.9-11.8,2.2-18.2l1-26.6ZM642.4,491.6c4.4,0,8.3-.4,12.3-.9l34.8-4.6c-.6-3.4-1.2-6.6-2.2-9.8-4.8-15.2-7-30.4-8.7-46.3s-4.3-30.1.2-32.2c6.7-3.1,16.6,9.6,23,13.3.7-11.5,0-21.5-1.1-32.3s-2.6-5-5.1-4.9c-22.8,1.3-44.5,3.2-67,6.4-1.7.2-4.3,1.5-5.7,2.5l-.3,30.3c0,2.9.7,5.5,1.9,8.8,8-6.5,8.9-16.3,19.2-20.3.7-.3,3.2,0,3.7.5s1.4,2.1,1.5,3.1l1.4,16.8c1.5,18.9.6,49.9-8,69.6ZM854.4,464.8c-3.4-29.2-5.6-42.5-1.5-72,.6-4.1,2.9-7.4,5.2-10.8-7.3-1.5-14.5-2.7-21.9-3.7l-17.7-2.3c-.9-.1-3.4.6-3.3,1.4.3,3.8,5,14.5,5.3,22.7l3.6,38.3c1.5,15.6-1.1,30.2-6.5,45.3,15.1,2.8,29.3,5.1,43.8,5.5l-7-24.5ZM950.2,396.2c-12.1-3.2-23.6-5.7-35.7-5.2,5.7,13.3,6.5,26.2,4.4,39.6-1.6,10.2-2.8,20-7.9,29.6-2.3-5.4-3.5-10.8-5-16.5-4.9-18.8-9.1-35.1-4.2-55.5l-25-4.7c-5.1-1-10-1.1-15.6,0l13,45.3c5.8,20.1,12.9,38.8,14.2,59.9.2,3.5,3.7,6.3,6.8,7.1l27.6,6.8,15.4-62.2,6.6-25.6,5.3-18.4ZM619.1,491.8c8.3-10.3,9.4-25.5,3.2-36.6-8.9-16.2-29.7-19.5-41-28.5-4.6-3.6-5.6-10.1-2.5-15.3s8.1-7.7,12.8-4.5.3,16.2,5.5,19.4,4.6.3,6.3-.7c7-3.9,9.1-10.8,10.3-18.4,1.6-9.9-2.6-19.6-13.4-22.4-15.7-4.1-34.3,1.3-44.9,13.9-13.4,15.9-10.3,38.9,7.1,49.8,10,6.2,29,13.2,26.3,23.6s-4,6.3-7.4,7c-11.8,2.1-17.8-10-20.8-20.3-7.1,4.2-9,12.3-9.6,20-1.2,13.7,6.8,25.4,20.5,28.3s35.9-.6,47.6-15.2ZM510.8,488c2.9,3.8,3.1,10.5,3,15.2l-.5,20.1c14-2,26.5-5.6,38.9-9.8.9-1.7.6-4.7-.4-6.2-3.2-5-4.9-10.1-7.5-15.3-7.2-14.1-11.9-28.3-14.7-44-3.7-20.6-6.7-27.7-4.1-51.1l-15.9,2.2-25.6,2.9c-1.2.1-3.4.9-4,1.7s-.7,3-.8,4.6c-.8,36.3-4.9,71.9-14.3,106.9l-5.9,22.3c1.6.5,3.9.9,5.1.6l27.6-7.6c1.9-.5,3.4-2.8,3.1-4.6-1.7-10.4-5-32.9,4.9-38.2,2.9-1.6,8.5-3.4,11.3.2ZM997,522.3c-3.7-17.3-7.6-30.8-8.7-46.5-1.3-19.1-1.7-37.5,1.9-56.3,1.2-5.3,2.8-9,5.6-14.6l-12.1-2.5c-10-2.1-19.9-3.9-30.4-5.3,10.5,26.8,9.5,66.8,6.2,93.6s-2.3,11.3-4.7,17c-.9,1.7.2,4.3,2.1,4.8l40.1,9.9ZM1049.7,523.7c2.4,6.4,6.5,10.5,12.5,11.9l18.4,4.5-2.1-28.1c-1.4-19-1.1-37.6,0-56.6.8-13,2.8-24.3,7.3-36.7l-27.6-5.6c-.9-.2-3.5.3-3.7,1.1s-.5,3-.4,3.8c3.6,20.6,6.5,40.6,3.8,62.5-6.1-11.3-9.1-22.9-13-34.6s-6.6-21.2-7.2-33c-11.6-3.5-22.5-5.9-34.5-7.8s-3.6,2.7-3.4,4.1l2.7,17.5c4.8,31.5,6,62.5,1.5,94.3-1,7,24.3,7.6,30,8.2l-3.9-21.5c-2.6-14.3-5.5-30-3.6-44.5,2.3,4.1,3.6,7.6,5.1,11.9l18,48.7ZM455.4,477.3c-5.8,6.5-8.7,11.9-12.7,17.8-6,7.4-17.1,20.4-27.7,16.7-12.3-4.3-1.7-65.2.2-76.6s4.9-19,8.6-28.9c-6.4-.6-11.8,1.1-17.7,2.2l-31.1,5.9c-.7.1-2.5,1-2.9,1.6s-.3,2.1-.1,3.1l5.6,29c4.7,24.7-1.3,79.3-13,103.6,29.4,2.9,53.1-3.2,80.6-10.1,3.1-1.2,5.2-3.9,5.6-7.3,2.3-19.2,4.4-37.6,4.7-57.1ZM1141.9,509.2c-.8,4-2.9,7.4-6,8.6-8.8,3.4-16-6.4-18.5-14-5.7-17.7-4.1-49.4,13-62.7,2.2-1.7,7.2-2.4,9.7-1.1,10.1,5.5,1.8,20.3,2.5,24.1s15.9,4.1,22-4c7.4-9.9,8.8-27.9-.5-37.4-13.5-14-35.8-13.5-51.3-3.2-13.5,9-21.4,23-24.1,38.9-2.6,15.2-2.6,30.5-.1,45.6,3.5,21.6,19,43.3,43.2,45,10.8.8,22.1-1.9,29.9-9.9,15-15.3,13.4-42.7,10.8-63.2-12.7,3.1-24.1,4.6-36.9,5.8-1.1,0-3.1,1.4-3.2,2.3-.5,4.5,12.9,7.9,9.5,25ZM784.3,517.4l27.4,6,88.7,21,65.8,14.5c30.8,6.8,61.2,9.1,92.9,9.1h73.5c13.4,0,26.4-3.5,39.5-6.6,1.9-1,1.9-1.2-.2-.6-41.9,0-82.7-1.8-124.4-5.3-27.7-2.3-53.7-6.5-80.7-12.7l-131.4-30.6c-38.9-9-77-14.1-117.2-11.7s-51.4,4.1-77.1,8.8c-18.9,3.5-36.7,7.2-55.1,12.6l-71.2,20.8-51.1,13.7c-11.5,3.1-22.9,4.3-34.7,6.4-23.3,4.2-46.1,4.3-69.5,1.5,24.6,20.4,92.6,6.3,120.9-1l28.3-7.3,82.2-24.1c54.9-16.1,137.2-26.6,193.5-14.4ZM826.1,540.6c-11.8-3.4-22.6-5.5-34.6-5.5-.4,4.5,1.4,7.1,2.6,10.7,6.3,18.2,8.2,37.9,5.1,56.7s-7.7,14.2-16,14.4c-7.2.2-14.5-4.8-15.8-13.2-3-19.7-2.6-39.9,1.3-59.7.9-4.4,3.7-7.6,4.9-12.6-9.4-2.8-32.5-2.5-41.3-1.5s-1.7,3.7-1.4,4.8c2.6,10.6,4,22.6,4.4,33.7.7,18.3-1.2,44.9,8.4,61.3s54.7,25,73.6,4c6.4-7.1,9.2-17,9.3-26.7.2-26.3-5.7-40.2-.5-66.4ZM668.5,648.5c16.4,4.7,35.1,0,46.6-12.1s11.4-21.8,12-34.1c1-19.6-2.1-39-12.4-55.3s-22.9-19.9-38.4-16.9c-9.4,1.8-17.3,7-23.9,14.3-9.5,10.4-13.3,24.3-14.2,38.4-1,14-.6,27.8,4.7,40.8s12.7,21.3,25.6,25ZM628.7,635.2c9.1-16.7-.7-34.8-14.7-41.6l-23.1-11.2c-3.5-1.7-6.8-6.7-6.6-10.4.6-10,15-15.3,19.9-11s.1,14.1,4.1,16.5,10-.1,13.5-3.5c6.2-6.2,8-16,5.8-24.3s-6.6-10.7-12.8-11.6c-12.9-1.8-24.8.9-36.9,5.2-12.6,4.4-23.4,10.8-31.6,21.4s-5.7,26.2,6.3,33.5c8.4,5.1,17.2,8.6,26.3,12.6s7,4.7,7.5,7.8-.5,8-3.3,10.3c-5.6,4.7-13.4,5.8-20.2,3.9-4.4-1.3-7.6-4.6-8.1-9.1l-1.2-10.9c-9.1-3.1-22.3,8.6-24.4,15.3s-3.2,15.7.8,22.1c16.3,25.4,82.1,15.4,98.5-14.8ZM878,630.2c-5.3-1.1-8.3-5.5-8.5-11-.9-20.5-.6-47,5.2-67.2l-21.8-6c-6.6-1.8-13.1-3.1-20.1-3.6,10.1,27.1,9.6,62.2,4.7,89.7-.9,5.1-2.5,9.2-4.4,14.3,1.9.8,4.8,1.8,7.3,2.2l66.7,9.3c1.4-10.1,3-33.6-.2-42.3-9.5,8.5-14.9,17.7-28.9,14.7ZM1001.7,653.6c6.5-11.1,2.1-24-7.4-31.6-5.6-4.4-11-7.9-17.2-11.2-6.7-3.5-28.6-14.3-25-23.1,1-2.5,4.1-4.2,7-4.4,16.5-1.2,6,17,17.8,19.1,5.5,1,11.1-2,13.6-6s2.6-10.8-.5-15.6c-5.2-8.3-14.4-13.4-24.1-15.6s-41.7-6-48.9,9.3c-4.3,9.2-1.2,19.3,5.3,26.6s13.7,11.6,21.6,16.5l13.4,8.3c3.4,2.1,5.7,7.6,3.9,11-2.8,5.5-9.3,6.1-14.4,4.5-9.6-2.9-15.4-10.8-15.2-21.2-7-2.1-13.1,7.5-14.5,11.5-3.7,10.4,1.5,20.8,10.9,26.5,22.2,13.6,61,17.1,73.6-4.5ZM1050.7,621.8l25.2-7-25-6.3-6.4-25.7-6.4,25.9-25.7,6.3,26,6.9,6.3,24.5,6.1-24.5ZM479.8,649.5l5.9-26.1,26.2-7.1-26.1-6.1-6.2-26.4-6.5,26.5-26.7,6.1,27.1,7.1,6.3,25.9ZM1075.4,651.1c3.6-9.6,2-7.1,10.6-10.5-6.4-.8-9.1-3.7-10.7-9.4-1.1,6.5-4.9,8.2-10.7,9.4,9.2,4,7.8.8,10.7,10.5ZM512.6,645.8c0-2.7-2.2-4.8-4.8-4.8s-4.8,2.2-4.8,4.8,2.2,4.8,4.8,4.8,4.8-2.2,4.8-4.8Z"/>
      <path class="st0" d="M781.7,498.2c-102.1-22.2-251.4-3.2-351,26.1l-149.1,43.8-51.3,13.2c-51.4,13.2-174.7,38.7-219.3,1.8,42.5,5.1,83.9,4.9,126.1-2.7,21.4-3.8,42-6.1,62.9-11.7l92.8-24.8,129.1-37.8c33.4-9.8,65.7-16.5,99.9-22.9,46.6-8.7,92.4-13.2,139.9-16,72.9-4.3,142.1,4.8,212.6,21.2l238.4,55.4c49,11.4,96.2,19,146.4,23.1,75.7,6.3,149.7,9.7,225.7,9.5,3.9-1.1,3.8-.7.4,1.2-23.7,5.6-47.2,11.9-71.6,11.9h-133.4c-57.4,0-112.6-4.1-168.5-16.4l-119.4-26.3-160.9-38-49.8-10.8Z"/>
      <path class="st0" d="M499.4,711.9c-29.8,54.9-149.2,73-178.7,26.9-7.4-11.6-5.3-27.8-1.5-40.1,3.7-12.1,27.8-33.3,44.3-27.7l2.2,19.8c.9,8.2,6.8,14.2,14.8,16.5,12.3,3.6,26.5,1.5,36.6-7,5-4.2,7-12.3,5.9-18.7-1-5.6-7.1-11.2-13.6-14.1-16.5-7.3-32.5-13.6-47.8-22.9-21.8-13.3-26.8-41-11.5-60.8,14.9-19.3,34.5-30.7,57.3-38.8,21.8-7.7,43.5-12.7,66.9-9.4,11.2,1.6,20.2,9.7,23.2,21.1s.8,33-10.5,44.2-16.2,11.3-24.4,6.3c-7.2-4.3,1.7-21.9-7.5-29.9-8.8-7.7-34.9,1.9-36,20s5.6,15.8,11.9,18.9l41.9,20.3c25.3,12.3,43.1,45.1,26.6,75.4Z"/>
      <path class="st0" d="M1430.5,483.3c6.2-31.1-18.1-37.1-17.2-45.4.2-1.7,3.9-4.1,5.8-4.3,23.2-2.1,43.8-4.9,66.9-10.6,4.7,37.1,7.5,86.8-19.6,114.6-14.2,14.5-34.6,19.4-54.3,18-43.9-3.1-72.1-42.5-78.4-81.7-4.4-27.4-4.4-55.2.3-82.7s19.2-54.4,43.7-70.6c28.2-18.7,68.6-19.4,93.1,5.9,16.8,17.4,14.4,50,.9,67.9-11,14.6-38.8,13-39.9,7.2s13.8-33.9-4.6-43.8-13.5-1.1-17.6,2c-31.2,24-34,81.6-23.7,113.7,4.5,13.8,17.6,31.6,33.5,25.3s9.5-8.3,11-15.7Z"/>
      <path class="st0" d="M1263.1,509.5l-32.6-88.4c-2.8-7.7-5.1-14-9.3-21.5-3.4,26.2,1.8,54.8,6.5,80.7l7.1,38.9c-10.3-1.1-56.3-2.2-54.5-14.9,8.3-57.5,6.1-113.9-2.7-171l-4.9-31.7c-.4-2.5,3.3-7.8,6.2-7.4,21.8,3.5,41.6,7.9,62.5,14.2,1.1,21.4,6.6,40.1,13.1,59.8,6.9,21.2,12.4,42.2,23.5,62.7,4.9-39.6-.3-75.9-6.9-113.3-.3-1.6.3-5.6.7-7s5-2.4,6.7-2l50,10.2c-8.2,22.4-11.9,43-13.3,66.6-2.1,34.6-2.7,68.2-.2,102.7l3.8,51.1-33.3-8.2c-10.9-2.7-18.4-10-22.6-21.6Z"/>
      <path class="st0" d="M857.6,540.2c-9.4,47.6,1.3,72.7,1,120.5-.1,17.6-5.2,35.6-16.8,48.5-34.3,38-109.2,34.1-133.6-7.3-17.5-29.7-13.9-78-15.2-111.2-.8-20.1-3.4-41.8-8-61.1-.5-2,.7-8.5,2.6-8.8,16-1.9,57.9-2.4,74.9,2.7-2.3,9.1-7.4,15-9,22.9-7.1,35.8-7.8,72.5-2.3,108.3,2.4,15.3,15.5,24.4,28.6,24,14.9-.5,26.3-10.1,29-26.2,5.8-34,2.2-69.9-9.2-102.9-2.3-6.6-5.6-11.3-4.8-19.5,21.6,0,41.2,3.8,62.7,10Z"/>
      <path class="st0" d="M571.7,736.1c-23.4-6.7-37.9-24.4-46.5-45.3-9.7-23.5-10.3-48.5-8.5-73.9s8.7-50.7,25.8-69.6c12-13.2,26.4-22.6,43.4-26,28.2-5.5,54.2,6,69.7,30.6,18.7,29.5,24.3,64.7,22.5,100.3-1.1,22.4-6,45.1-21.9,62-20.8,22.1-54.8,30.6-84.6,22ZM615.6,575.4c-3.4-5.2-11.3-11.2-17.2-10.2-12.4,2-18.9,12.2-22,22.8-8,27.8-7.4,56.3,4,82.9,2.7,6.3,9.2,13,15.8,14.1,42.3,7.5,38.6-80.1,19.4-109.7Z"/>
      <path class="st0" d="M184.9,425.3c-.5,35.4-4.3,68.8-8.4,103.6-.7,6.3-4.5,11.1-10.1,13.3-49.8,12.5-92.9,23.6-146.2,18.3,21.2-44.1,32.1-143.1,23.6-187.9l-10.1-52.6c-.3-1.8-.5-4.6.2-5.6s3.9-2.6,5.2-2.8l56.4-10.7c10.7-2,20.5-5.2,32-4.1-6.7,17.9-12.6,33.9-15.7,52.4-3.4,20.6-22.5,131.1-.3,138.9,19.1,6.7,39.3-16.9,50.3-30.4,7.2-10.8,12.5-20.6,23.1-32.3Z"/>
      <path class="st0" d="M285.4,444.7c-5-6.5-15.1-3.3-20.5-.4-17.9,9.7-11.9,50.4-8.8,69.4s-2.1,7.4-5.5,8.3l-50.1,13.7c-2,.5-6.2-.2-9.2-1.1l10.8-40.4c16.9-63.6,24.5-128.2,25.9-194,0-3,.3-6.9,1.4-8.3s5-2.7,7.2-3l46.4-5.3,28.9-4c-4.6,42.5.9,55.4,7.5,92.7,5,28.4,13.6,54.1,26.7,79.8,4.8,9.3,7.9,18.5,13.7,27.7s2.3,8.2.7,11.3c-22.6,7.6-45.2,14.1-70.6,17.7l.9-36.5c.2-8.4,0-20.7-5.4-27.5ZM281.2,398.6c-2.9-22.8-5.5-43.4-13.3-63.9l-9.7,72.3c7.8,1.9,18.9-.9,23-8.4Z"/>
      <path class="st0" d="M481.9,451.7c-21.2,26.5-54.8,34.4-86.5,27.6-24.8-5.3-39.4-26.5-37.2-51.4,1.2-13.9,4.6-28.5,17.5-36.2,5.5,18.6,16.3,40.6,37.7,36.7,6.3-1.1,12.1-7.5,13.5-12.6,5.1-18.8-29.5-31.5-47.6-42.8-31.5-19.7-37.1-61.5-12.9-90.3,19.2-22.8,52.9-32.6,81.5-25.2,19.5,5.1,27.1,22.8,24.2,40.7-2.2,13.8-6,26.3-18.7,33.3-3,1.7-8.9,2.8-11.5,1.2-9.5-5.8,0-28.2-10.1-35.2s-19.6,2.2-23.2,8.1c-5.7,9.5-3.8,21.2,4.6,27.8,20.6,16.4,58.3,22.3,74.5,51.7,11.2,20.3,9.2,47.8-5.8,66.5Z"/>
      <path class="st0" d="M1176.1,745.2c-22.9,39.1-93.3,32.8-133.5,8.1-17-10.4-26.4-29.2-19.7-48.2,2.5-7.2,13.6-24.6,26.2-20.9-.3,18.8,10.2,33.1,27.6,38.4s21.1,1.7,26.1-8.2-1-16.1-7.2-19.9l-24.4-15.1c-14.2-8.8-27.8-17.5-39.1-29.9-11.9-13.1-17.6-31.6-9.7-48.2,13.1-27.7,64.1-22.4,88.7-16.8,17.6,4,34.4,13.4,43.7,28.4,5.6,8.9,6.3,19.6.9,28.4-4.5,7.2-14.6,12.7-24.6,10.8-21.5-3.9-2.4-36.9-32.3-34.7-5.3.4-10.9,3.5-12.7,8.1-6.5,16,33.1,35.6,45.3,42,11.3,5.9,21.1,12.3,31.2,20.3,17.4,13.7,25.3,37.2,13.5,57.3Z"/>
      <path class="st0" d="M1082.6,278.3l-9.5,33.4-11.9,46.5-28,112.9-50.1-12.4c-5.6-1.4-12-6.5-12.3-12.8-2.4-38.3-15.3-72.2-25.7-108.6l-23.6-82.2c10.3-1.9,19.1-1.7,28.4,0l45.3,8.6c-9,37.1-1.4,66.6,7.5,100.7,2.7,10.4,4.9,20,9,29.9,9.2-17.3,11.5-35,14.3-53.6,3.8-24.3,2.4-47.7-8-71.8,21.9-.9,42.8,3.5,64.7,9.4Z"/>
      <path class="st0" d="M524.2,451.3c15.8-35.9,17.4-92.1,14.6-126.4l-2.5-30.5c-.1-1.7-1.8-4.5-2.7-5.6s-5.4-1.4-6.8-.9c-18.8,7.3-20.4,25.1-34.9,36.8-2.2-6-3.6-10.6-3.5-15.9l.6-55.1c2.6-1.8,7.3-4.1,10.3-4.5,40.9-5.7,80.3-9.3,121.6-11.6,4.5-.2,8.8,4.8,9.2,8.8,2,19.5,3.2,37.8,2,58.6-11.7-6.8-29.6-29.8-41.7-24.2-8.3,3.8-1.5,47.7-.4,58.4,3,28.9,7,56.4,15.7,84,1.8,5.8,2.9,11.6,3.9,17.8l-63.2,8.4c-7.3,1-14.3,1.6-22.3,1.7Z"/>
      <path class="st0" d="M828.8,356.3l-1.8,48.2c-.4,11.7-1.6,21.3-3.9,33-34.9-3.7-67.7-4.1-102.6-2.5-8.9.4-17.6,0-26-1.3,3.2-8.8,8.3-15.5,9.8-23.8,18.7-99.6-3.8-160.4-2.2-168.4,1.4-7.1,63.4-4.9,74.2-2.3-14.8,45-15.7,90.9-14.6,136.9.2,7.9,8.4,14.1,15.7,14.3,21.9.5,33.6-18.3,44.8-35.1l1.8-2.7c.4-.6,4.7,2.6,4.7,3.7Z"/>
      <path class="st0" d="M951.7,702.8c25.4,5.5,35.2-11.3,52.4-26.7,5.7,15.8,2.9,58.5.3,76.8l-121.1-16.9c-4.4-.6-9.7-2.4-13.2-3.9,3.5-9.3,6.4-16.7,8.1-26,9-50,9.8-113.6-8.5-162.8,12.7,1,24.5,3.2,36.5,6.5l39.6,11c-10.5,36.7-11.1,84.8-9.5,122,.4,10,5.9,17.9,15.4,20Z"/>
      <path class="st0" d="M1167.5,507l-72.7-17.9c-3.4-.8-5.4-5.7-3.8-8.7,4.2-10.3,7.1-19.8,8.5-30.9,6-48.5,7.9-121.2-11.2-169.8,19,2.7,36.9,5.9,55.1,9.7l22,4.6c-5,10.2-7.8,16.8-10.1,26.5-6.4,34-5.7,67.4-3.4,102.1,1.9,28.6,8.9,53,15.7,84.4Z"/>
      <path class="st0" d="M908.9,402.8l12.7,44.4c-26.3-.7-52-4.8-79.5-9.9,9.7-27.4,14.4-53.8,11.7-82.2l-6.5-69.4c-.5-15-9.2-34.4-9.6-41.2-.1-1.5,4.3-2.8,6-2.5l32.2,4.2c13.5,1.7,26.5,3.9,39.8,6.6-4.2,6.2-8.5,12.1-9.5,19.6-7.4,53.4-3.4,77.6,2.8,130.5Z"/>
      <polygon class="st0" points="229.2 737.9 217.8 690.9 168.6 678 217 667.1 228.9 619 240.1 666.8 287.5 677.8 240 690.6 229.2 737.9"/>
      <polygon class="st0" points="1264.9 687.5 1253.9 731.9 1242.5 687.4 1195.4 675 1241.9 663.5 1253.6 616.6 1265.2 663.3 1310.6 674.7 1264.9 687.5"/>
      <path class="st0" d="M1309.7,740.8c-5.2-17.6-2.7-11.8-19.4-19.1,10.5-2.3,17.3-5.4,19.3-17.1,2.9,10.3,7.8,15.5,19.4,17-15.7,6.3-12.9,1.7-19.3,19.1Z"/>
      <circle class="st0" cx="279.9" cy="731.1" r="8.8"/>
      <path class="st1" d="M692.7,560c10.6,16.3,12.6,64.6-10.7,60.4-3.6-.6-7.2-4.3-8.7-7.8-6.3-14.7-6.7-30.4-2.2-45.7s5.3-11.5,12.1-12.6c3.3-.5,7.6,2.8,9.5,5.6Z"/>
      <path class="st1" d="M508.4,462.5c-2.3,4.1-8.4,5.7-12.7,4.6l5.4-39.8c4.3,11.3,5.7,22.7,7.3,35.2Z"/>
    </g>
  </g>
</svg>